<svg width="299" height="60" viewBox="0 0 299 60" fill="none" xmlns="http://www.w3.org/2000/svg">
<path d="M16.5351 2.14557C16.5351 3.33097 15.5211 4.29115 14.2703 4.29115C13.0195 4.29115 12.0055 3.33097 12.0055 2.14557C12.0055 0.960636 13.0195 0 14.2703 0C15.5211 0 16.5351 0.960636 16.5351 2.14557Z" fill="white"/>
<path d="M7.31006 10.6203C7.31006 11.8007 6.17767 12.7663 4.79397 12.7663H2.51609C1.13239 12.7663 0 11.8007 0 10.6203C0 9.44043 1.13239 8.4752 2.51609 8.4752H4.79397C6.17767 8.4752 7.31006 9.43997 7.31006 10.6203Z" fill="#00D991"/>
<path d="M67.2247 17.1628H62.2856C60.8321 17.1628 59.6429 16.1975 59.6429 15.0172C59.6429 13.8378 60.8321 12.8716 62.2856 12.8716H63.7373C65.1918 12.8716 66.38 11.9059 66.38 10.7265C66.38 9.54615 65.1918 8.58046 63.7373 8.58046H56.8673C55.4137 8.58046 54.2255 7.61477 54.2255 6.43489C54.2255 5.26695 55.3899 4.31045 56.8236 4.29115H59.3159C60.7695 4.29115 61.9586 3.32546 61.9586 2.14557C61.9586 0.965233 60.7695 0 59.3159 0H40.4283H39.5253H20.6377C19.1831 0 17.994 0.965692 17.994 2.14557C17.994 3.32546 19.1831 4.29115 20.6377 4.29115H22.1063C23.5468 4.30402 24.7199 5.26374 24.7199 6.43581C24.7199 7.61569 23.5317 8.58138 22.0772 8.58138H11.9163C10.4627 8.58138 9.27354 9.54707 9.27354 10.727C9.27354 11.9068 10.4627 12.8725 11.9163 12.8725H19.0109C20.4645 12.8725 21.6536 13.8382 21.6536 15.0181C21.6536 16.198 20.4645 17.1641 19.0109 17.1641H17.273C15.8185 17.1641 14.6303 18.1294 14.6303 19.3093C14.6303 20.4896 15.8185 21.4553 17.273 21.4553H23.7054C25.159 21.4553 26.3481 22.421 26.3481 23.6009C26.3481 24.7688 25.1828 25.7248 23.7491 25.7446H21.6949C20.2413 25.7446 19.0521 26.7103 19.0521 27.8902C19.0521 29.0701 20.2413 30.0358 21.6949 30.0358H40.5825H41.4854H60.3741C61.8276 30.0358 63.0168 29.0701 63.0168 27.8897C63.0168 26.7103 61.8276 25.7441 60.3741 25.7441H59.0855C57.645 25.7313 56.4718 24.772 56.4718 23.5995C56.4718 22.4201 57.661 21.4544 59.1155 21.4544H67.2252C68.6787 21.4544 69.8679 20.4887 69.8679 19.3088C69.8674 18.1285 68.6782 17.1628 67.2247 17.1628Z" fill="#00D991"/>
<path d="M72.5654 10.7394C72.5654 11.9243 71.5505 12.8849 70.2997 12.8849C69.0489 12.8849 68.0349 11.9243 68.0349 10.7394C68.0349 9.55397 69.0489 8.5938 70.2997 8.5938C71.5505 8.5938 72.5654 9.55397 72.5654 10.7394Z" fill="white"/>
<path d="M17.6068 27.9164C17.6068 29.0967 16.4744 30.0619 15.0907 30.0619H12.8129C11.4282 30.0619 10.2968 29.0967 10.2968 27.9164C10.2968 26.7365 11.4282 25.7708 12.8129 25.7708H15.0907C16.4744 25.7713 17.6068 26.7365 17.6068 27.9164Z" fill="white"/>
<path d="M27.8073 16.671V14.0718L35.7472 10.8445V13.5736L30.6887 15.3497L30.7741 15.2198V15.523L30.6887 15.3931L35.7472 17.1691V19.8983L27.8073 16.671Z" fill="white"/>
<path d="M43.0921 8.26704L39.5704 21.5444H37.0731L40.5949 8.26704H43.0921Z" fill="white"/>
<path d="M52.3579 16.671L44.418 19.8983V17.1691L49.4765 15.3931L49.3911 15.523V15.2198L49.4765 15.3497L44.418 13.5736V10.8445L52.3579 14.0718V16.671Z" fill="white"/>
<path d="M85.031 25.4425C84.3437 24.5971 84 23.8441 84 23.1836C84 22.4967 84.5684 21.5984 85.7051 20.4888C86.366 19.8547 87.0665 19.5376 87.8067 19.5376C88.5469 19.5376 89.5779 20.1982 90.8996 21.5192C91.2697 21.9683 91.7984 22.4042 92.4858 22.827C93.1731 23.2233 93.8075 23.4214 94.3891 23.4214C96.8476 23.4214 98.0768 22.4174 98.0768 20.4095C98.0768 19.8018 97.7332 19.2999 97.0459 18.9036C96.385 18.4808 95.5523 18.177 94.5477 17.9921C93.5432 17.8071 92.4593 17.5165 91.2962 17.1202C90.133 16.6975 89.0492 16.2087 88.0446 15.6539C87.0401 15.0991 86.1941 14.2272 85.5068 13.0383C84.8459 11.823 84.5155 10.3699 84.5155 8.679C84.5155 6.35403 85.3746 4.33289 87.0929 2.61559C88.8377 0.871863 91.2036 0 94.1908 0C95.777 0 97.2177 0.211361 98.513 0.634083C99.8348 1.03038 100.747 1.4399 101.249 1.86262L102.24 2.61559C103.06 3.38177 103.47 4.02906 103.47 4.55746C103.47 5.08587 103.152 5.81242 102.518 6.73712C101.619 8.05812 100.694 8.71863 99.7423 8.71863C99.1871 8.71863 98.4998 8.45443 97.6803 7.92602C97.601 7.87318 97.4424 7.74108 97.2045 7.52972C96.993 7.31836 96.7947 7.14663 96.6097 7.01453C96.0545 6.67107 95.3408 6.49934 94.4684 6.49934C93.6225 6.49934 92.9087 6.7107 92.3272 7.13342C91.772 7.52972 91.4944 8.09776 91.4944 8.83752C91.4944 9.55086 91.8249 10.1321 92.4858 10.5812C93.1731 11.0304 94.019 11.3342 95.0236 11.4927C96.0281 11.6513 97.1252 11.9022 98.3148 12.2457C99.5044 12.5627 100.601 12.9591 101.606 13.4346C102.611 13.9102 103.443 14.7424 104.104 15.9313C104.791 17.0938 105.135 18.5337 105.135 20.251C105.135 21.9683 104.791 23.4875 104.104 24.8085C103.417 26.103 102.518 27.107 101.408 27.8203C99.2664 29.2206 96.9798 29.9207 94.5477 29.9207C93.3053 29.9207 92.1289 29.7754 91.0186 29.4848C89.9083 29.1678 89.0095 28.7847 88.3222 28.3355C86.9211 27.4901 85.943 26.6711 85.3879 25.8785L85.031 25.4425Z" fill="white"/>
<path d="M121.354 0.118891C125.266 0.118891 128.663 1.53237 131.544 4.35931C134.426 7.18626 135.867 10.7001 135.867 14.9009C135.867 19.0753 134.492 22.642 131.743 25.6011C128.993 28.5337 125.61 30 121.591 30C117.573 30 114.15 28.5469 111.321 25.6407C108.519 22.7345 107.118 19.2734 107.118 15.2576C107.118 13.0647 107.515 11.0172 108.308 9.11493C109.101 7.18626 110.158 5.57464 111.48 4.28005C112.802 2.98547 114.322 1.9683 116.04 1.22853C117.758 0.488772 119.529 0.118891 121.354 0.118891ZM114.137 15.0594C114.137 17.4108 114.89 19.3263 116.397 20.8058C117.93 22.2589 119.635 22.9855 121.512 22.9855C123.389 22.9855 125.081 22.2721 126.588 20.8454C128.095 19.4188 128.848 17.5033 128.848 15.0991C128.848 12.6948 128.081 10.7662 126.548 9.31308C125.041 7.85997 123.349 7.13342 121.472 7.13342C119.596 7.13342 117.904 7.87319 116.397 9.35271C114.89 10.8058 114.137 12.7081 114.137 15.0594Z" fill="white"/>
<path d="M157.691 0.475562C158.299 0.475562 158.749 0.501983 159.039 0.554824C159.357 0.581244 159.7 0.700133 160.07 0.911493C160.467 1.12285 160.745 1.47952 160.903 1.98151C161.062 2.48349 161.141 3.1572 161.141 4.00264C161.141 4.84808 161.062 5.5218 160.903 6.02378C160.745 6.52576 160.467 6.88243 160.07 7.09379C159.674 7.27873 159.317 7.39762 159 7.45046C158.709 7.47688 158.246 7.49009 157.612 7.49009H145.478V11.4927H153.29C153.924 11.4927 154.387 11.5192 154.678 11.572C154.995 11.5984 155.352 11.7173 155.748 11.9287C156.436 12.325 156.779 13.3686 156.779 15.0594C156.779 16.9089 156.277 18.0053 155.272 18.3487C154.849 18.4808 154.175 18.5469 153.25 18.5469H145.478V26.037C145.478 26.6711 145.452 27.1334 145.399 27.424C145.372 27.7147 145.253 28.0581 145.042 28.4544C144.672 29.1678 143.641 29.5244 141.949 29.5244C140.098 29.5244 139.015 29.0225 138.697 28.0185C138.539 27.5958 138.459 26.9221 138.459 25.9974V3.96301C138.459 2.61559 138.711 1.7041 139.213 1.22853C139.715 0.726553 140.667 0.475562 142.068 0.475562H157.691Z" fill="white"/>
<path d="M165.611 0.435933H187.658C188.504 0.435933 189.125 0.541613 189.522 0.752974C189.918 0.937914 190.182 1.24174 190.315 1.66447C190.447 2.08719 190.513 2.64201 190.513 3.32893C190.513 4.01585 190.447 4.57067 190.315 4.9934C190.182 5.3897 189.958 5.66711 189.64 5.82563C189.165 6.06341 188.491 6.1823 187.618 6.1823H180.044V26.1162C180.044 26.7239 180.018 27.1731 179.965 27.4637C179.939 27.7543 179.82 28.0978 179.608 28.4941C179.423 28.8639 179.08 29.1281 178.577 29.2867C178.075 29.4452 177.414 29.5244 176.595 29.5244C175.775 29.5244 175.114 29.4452 174.612 29.2867C174.136 29.1281 173.792 28.8639 173.581 28.4941C173.396 28.0978 173.277 27.7543 173.224 27.4637C173.198 27.1466 173.184 26.6843 173.184 26.0766V6.1823H165.571C164.725 6.1823 164.104 6.08983 163.707 5.90489C163.311 5.69353 163.046 5.37649 162.914 4.95377C162.782 4.53104 162.716 3.97622 162.716 3.2893C162.716 2.60238 162.782 2.06077 162.914 1.66447C163.046 1.24174 163.271 0.951124 163.588 0.792604C164.064 0.554823 164.738 0.435933 165.611 0.435933Z" fill="white"/>
<path d="M199.73 23.6592H210.516C211.388 23.6592 212.022 23.7649 212.419 23.9762C212.816 24.1612 213.08 24.465 213.212 24.8877C213.344 25.3104 213.41 25.8785 213.41 26.5918C213.41 27.2787 213.344 27.8336 213.212 28.2563C213.08 28.679 212.855 28.9696 212.538 29.1281C212.036 29.3923 211.348 29.5244 210.476 29.5244H196.201C194.35 29.5244 193.267 29.0225 192.949 28.0185C192.791 27.5958 192.711 26.9221 192.711 25.9974V3.96301C192.711 3.35535 192.725 2.90621 192.751 2.61559C192.804 2.29855 192.936 1.94188 193.148 1.54558C193.518 0.832234 194.549 0.475562 196.241 0.475562C198.091 0.475562 199.188 0.964334 199.532 1.94188C199.664 2.39102 199.73 3.07794 199.73 4.00264V23.6592Z" fill="white"/>
<path d="M229.625 0.118891C233.538 0.118891 236.934 1.53237 239.816 4.35931C242.697 7.18626 244.138 10.7001 244.138 14.9009C244.138 19.0753 242.763 22.642 240.014 25.6011C237.265 28.5337 233.881 30 229.863 30C225.845 30 222.421 28.5469 219.593 25.6407C216.791 22.7345 215.39 19.2734 215.39 15.2576C215.39 13.0647 215.786 11.0172 216.579 9.11493C217.372 7.18626 218.43 5.57464 219.751 4.28005C221.073 2.98547 222.593 1.9683 224.312 1.22853C226.03 0.488772 227.801 0.118891 229.625 0.118891ZM222.408 15.0594C222.408 17.4108 223.162 19.3263 224.668 20.8058C226.202 22.2589 227.907 22.9855 229.784 22.9855C231.661 22.9855 233.352 22.2721 234.859 20.8454C236.366 19.4188 237.119 17.5033 237.119 15.0991C237.119 12.6948 236.353 10.7662 234.82 9.31308C233.313 7.85997 231.621 7.13342 229.744 7.13342C227.867 7.13342 226.175 7.87319 224.668 9.35271C223.162 10.8058 222.408 12.7081 222.408 15.0594Z" fill="white"/>
<path d="M265.963 0.475562C266.571 0.475562 267.02 0.501983 267.311 0.554824C267.628 0.581244 267.972 0.700133 268.342 0.911493C268.739 1.12285 269.016 1.47952 269.175 1.98151C269.333 2.48349 269.413 3.1572 269.413 4.00264C269.413 4.84808 269.333 5.5218 269.175 6.02378C269.016 6.52576 268.739 6.88243 268.342 7.09379C267.945 7.27873 267.589 7.39762 267.271 7.45046C266.981 7.47688 266.518 7.49009 265.883 7.49009H253.75V11.4927H261.561C262.196 11.4927 262.658 11.5192 262.949 11.572C263.266 11.5984 263.623 11.7173 264.02 11.9287C264.707 12.325 265.051 13.3686 265.051 15.0594C265.051 16.9089 264.548 18.0053 263.544 18.3487C263.121 18.4808 262.447 18.5469 261.522 18.5469H253.75V26.037C253.75 26.6711 253.723 27.1334 253.67 27.424C253.644 27.7147 253.525 28.0581 253.313 28.4544C252.943 29.1678 251.912 29.5244 250.221 29.5244C248.37 29.5244 247.286 29.0225 246.969 28.0185C246.81 27.5958 246.731 26.9221 246.731 25.9974V3.96301C246.731 2.61559 246.982 1.7041 247.484 1.22853C247.987 0.726553 248.938 0.475562 250.339 0.475562H265.963Z" fill="white"/>
<path d="M295.057 1.03038C296.352 1.92867 297 2.80053 297 3.64597C297 4.14795 296.696 4.84809 296.088 5.74637L287.523 18.5469V26.1162C287.523 26.7239 287.496 27.1863 287.444 27.5033C287.417 27.7939 287.298 28.1374 287.087 28.5337C286.875 28.93 286.518 29.2074 286.016 29.3659C285.514 29.5244 284.84 29.6037 283.994 29.6037C283.148 29.6037 282.474 29.5244 281.971 29.3659C281.469 29.2074 281.112 28.93 280.901 28.5337C280.689 28.111 280.557 27.7543 280.504 27.4637C280.478 27.1466 280.465 26.6711 280.465 26.037V18.5469L271.9 5.74637C271.292 4.84809 270.988 4.14795 270.988 3.64597C270.988 2.80053 271.569 1.99472 272.732 1.22853C273.895 0.435933 274.728 0.039632 275.23 0.039632C275.733 0.039632 276.129 0.145312 276.42 0.356671C276.869 0.647293 277.345 1.1889 277.848 1.98151L283.994 11.8098L290.14 1.98151C290.642 1.1889 291.078 0.673714 291.449 0.435933C291.819 0.171732 292.242 0.039632 292.717 0.039632C293.22 0.039632 294 0.369883 295.057 1.03038Z" fill="white"/>
<path d="M16.1455 46.624L13.8055 55H11.8255L10.2535 49.036L8.60949 55L6.64149 55.012L4.38549 46.624H6.18549L7.66149 53.128L9.36549 46.624H11.2375L12.8455 53.092L14.3335 46.624H16.1455ZM23.3865 48.256C23.8905 48.256 24.3385 48.368 24.7305 48.592C25.1225 48.808 25.4265 49.132 25.6425 49.564C25.8665 49.988 25.9785 50.5 25.9785 51.1V55H24.2985V51.328C24.2985 50.8 24.1665 50.396 23.9025 50.116C23.6385 49.828 23.2785 49.684 22.8225 49.684C22.3585 49.684 21.9905 49.828 21.7185 50.116C21.4545 50.396 21.3225 50.8 21.3225 51.328V55H19.6425V46.12H21.3225V49.18C21.5385 48.892 21.8265 48.668 22.1865 48.508C22.5465 48.34 22.9465 48.256 23.3865 48.256ZM36.1561 51.532C36.1561 51.772 36.1401 51.988 36.1081 52.18H31.2481C31.2881 52.66 31.4561 53.036 31.7521 53.308C32.0481 53.58 32.4121 53.716 32.8441 53.716C33.4681 53.716 33.9121 53.448 34.1761 52.912H35.9881C35.7961 53.552 35.4281 54.08 34.8841 54.496C34.3401 54.904 33.6721 55.108 32.8801 55.108C32.2401 55.108 31.6641 54.968 31.1521 54.688C30.6481 54.4 30.2521 53.996 29.9641 53.476C29.6841 52.956 29.5441 52.356 29.5441 51.676C29.5441 50.988 29.6841 50.384 29.9641 49.864C30.2441 49.344 30.6361 48.944 31.1401 48.664C31.6441 48.384 32.2241 48.244 32.8801 48.244C33.5121 48.244 34.0761 48.38 34.5721 48.652C35.0761 48.924 35.4641 49.312 35.7361 49.816C36.0161 50.312 36.1561 50.884 36.1561 51.532ZM34.4161 51.052C34.4081 50.62 34.2521 50.276 33.9481 50.02C33.6441 49.756 33.2721 49.624 32.8321 49.624C32.4161 49.624 32.0641 49.752 31.7761 50.008C31.4961 50.256 31.3241 50.604 31.2601 51.052H34.4161ZM41.4623 49.384C41.6783 49.032 41.9583 48.756 42.3023 48.556C42.6543 48.356 43.0543 48.256 43.5023 48.256V50.02H43.0583C42.5303 50.02 42.1303 50.144 41.8583 50.392C41.5943 50.64 41.4623 51.072 41.4623 51.688V55H39.7823V48.352H41.4623V49.384ZM53.2139 51.532C53.2139 51.772 53.1979 51.988 53.1659 52.18H48.3059C48.3459 52.66 48.5139 53.036 48.8099 53.308C49.1059 53.58 49.4699 53.716 49.9019 53.716C50.5259 53.716 50.9699 53.448 51.2339 52.912H53.0459C52.8539 53.552 52.4859 54.08 51.9419 54.496C51.3979 54.904 50.7299 55.108 49.9379 55.108C49.2979 55.108 48.7219 54.968 48.2099 54.688C47.7059 54.4 47.3099 53.996 47.0219 53.476C46.7419 52.956 46.6019 52.356 46.6019 51.676C46.6019 50.988 46.7419 50.384 47.0219 49.864C47.3019 49.344 47.6939 48.944 48.1979 48.664C48.7019 48.384 49.2819 48.244 49.9379 48.244C50.5699 48.244 51.1339 48.38 51.6299 48.652C52.1339 48.924 52.5219 49.312 52.7939 49.816C53.0739 50.312 53.2139 50.884 53.2139 51.532ZM51.4739 51.052C51.4659 50.62 51.3099 50.276 51.0059 50.02C50.7019 49.756 50.3299 49.624 49.8899 49.624C49.4739 49.624 49.1219 49.752 48.8339 50.008C48.5539 50.256 48.3819 50.604 48.3179 51.052H51.4739ZM62.9515 47.56C62.6555 47.56 62.4075 47.468 62.2075 47.284C62.0155 47.092 61.9195 46.856 61.9195 46.576C61.9195 46.296 62.0155 46.064 62.2075 45.88C62.4075 45.688 62.6555 45.592 62.9515 45.592C63.2475 45.592 63.4915 45.688 63.6835 45.88C63.8835 46.064 63.9835 46.296 63.9835 46.576C63.9835 46.856 63.8835 47.092 63.6835 47.284C63.4915 47.468 63.2475 47.56 62.9515 47.56ZM63.7795 48.352V55H62.0995V48.352H63.7795ZM71.5233 48.256C72.3153 48.256 72.9553 48.508 73.4433 49.012C73.9313 49.508 74.1753 50.204 74.1753 51.1V55H72.4953V51.328C72.4953 50.8 72.3633 50.396 72.0993 50.116C71.8353 49.828 71.4753 49.684 71.0193 49.684C70.5553 49.684 70.1873 49.828 69.9153 50.116C69.6513 50.396 69.5193 50.8 69.5193 51.328V55H67.8393V48.352H69.5193V49.18C69.7433 48.892 70.0273 48.668 70.3713 48.508C70.7233 48.34 71.1073 48.256 71.5233 48.256ZM81.8569 48.256C82.6489 48.256 83.2889 48.508 83.7769 49.012C84.2649 49.508 84.5089 50.204 84.5089 51.1V55H82.8289V51.328C82.8289 50.8 82.6969 50.396 82.4329 50.116C82.1689 49.828 81.8089 49.684 81.3529 49.684C80.8889 49.684 80.5209 49.828 80.2489 50.116C79.9849 50.396 79.8529 50.8 79.8529 51.328V55H78.1729V48.352H79.8529V49.18C80.0769 48.892 80.3609 48.668 80.7049 48.508C81.0569 48.34 81.4409 48.256 81.8569 48.256ZM91.4585 55.108C90.8185 55.108 90.2425 54.968 89.7305 54.688C89.2185 54.4 88.8145 53.996 88.5185 53.476C88.2305 52.956 88.0865 52.356 88.0865 51.676C88.0865 50.996 88.2345 50.396 88.5305 49.876C88.8345 49.356 89.2465 48.956 89.7665 48.676C90.2865 48.388 90.8665 48.244 91.5065 48.244C92.1465 48.244 92.7265 48.388 93.2465 48.676C93.7665 48.956 94.1745 49.356 94.4705 49.876C94.7745 50.396 94.9265 50.996 94.9265 51.676C94.9265 52.356 94.7705 52.956 94.4585 53.476C94.1545 53.996 93.7385 54.4 93.2105 54.688C92.6905 54.968 92.1065 55.108 91.4585 55.108ZM91.4585 53.644C91.7625 53.644 92.0465 53.572 92.3105 53.428C92.5825 53.276 92.7985 53.052 92.9585 52.756C93.1185 52.46 93.1985 52.1 93.1985 51.676C93.1985 51.044 93.0305 50.56 92.6945 50.224C92.3665 49.88 91.9625 49.708 91.4825 49.708C91.0025 49.708 90.5985 49.88 90.2705 50.224C89.9505 50.56 89.7905 51.044 89.7905 51.676C89.7905 52.308 89.9465 52.796 90.2585 53.14C90.5785 53.476 90.9785 53.644 91.4585 53.644ZM101.331 53.452L103.011 48.352H104.799L102.339 55H100.299L97.8509 48.352H99.6509L101.331 53.452ZM107.71 51.652C107.71 50.98 107.842 50.384 108.106 49.864C108.378 49.344 108.742 48.944 109.198 48.664C109.662 48.384 110.178 48.244 110.746 48.244C111.242 48.244 111.674 48.344 112.042 48.544C112.418 48.744 112.718 48.996 112.942 49.3V48.352H114.634V55H112.942V54.028C112.726 54.34 112.426 54.6 112.042 54.808C111.666 55.008 111.23 55.108 110.734 55.108C110.174 55.108 109.662 54.964 109.198 54.676C108.742 54.388 108.378 53.984 108.106 53.464C107.842 52.936 107.71 52.332 107.71 51.652ZM112.942 51.676C112.942 51.268 112.862 50.92 112.702 50.632C112.542 50.336 112.326 50.112 112.054 49.96C111.782 49.8 111.49 49.72 111.178 49.72C110.866 49.72 110.578 49.796 110.314 49.948C110.05 50.1 109.834 50.324 109.666 50.62C109.506 50.908 109.426 51.252 109.426 51.652C109.426 52.052 109.506 52.404 109.666 52.708C109.834 53.004 110.05 53.232 110.314 53.392C110.586 53.552 110.874 53.632 111.178 53.632C111.49 53.632 111.782 53.556 112.054 53.404C112.326 53.244 112.542 53.02 112.702 52.732C112.862 52.436 112.942 52.084 112.942 51.676ZM120.631 49.732V52.948C120.631 53.172 120.683 53.336 120.787 53.44C120.899 53.536 121.083 53.584 121.339 53.584H122.119V55H121.063C119.647 55 118.939 54.312 118.939 52.936V49.732H118.147V48.352H118.939V46.708H120.631V48.352H122.119V49.732H120.631ZM126.58 47.56C126.284 47.56 126.036 47.468 125.836 47.284C125.644 47.092 125.548 46.856 125.548 46.576C125.548 46.296 125.644 46.064 125.836 45.88C126.036 45.688 126.284 45.592 126.58 45.592C126.876 45.592 127.12 45.688 127.312 45.88C127.512 46.064 127.612 46.296 127.612 46.576C127.612 46.856 127.512 47.092 127.312 47.284C127.12 47.468 126.876 47.56 126.58 47.56ZM127.408 48.352V55H125.728V48.352H127.408ZM134.419 55.108C133.779 55.108 133.203 54.968 132.691 54.688C132.179 54.4 131.775 53.996 131.479 53.476C131.191 52.956 131.047 52.356 131.047 51.676C131.047 50.996 131.195 50.396 131.491 49.876C131.795 49.356 132.207 48.956 132.727 48.676C133.247 48.388 133.827 48.244 134.467 48.244C135.107 48.244 135.687 48.388 136.207 48.676C136.727 48.956 137.135 49.356 137.431 49.876C137.735 50.396 137.887 50.996 137.887 51.676C137.887 52.356 137.731 52.956 137.419 53.476C137.115 53.996 136.699 54.4 136.171 54.688C135.651 54.968 135.067 55.108 134.419 55.108ZM134.419 53.644C134.723 53.644 135.007 53.572 135.271 53.428C135.543 53.276 135.759 53.052 135.919 52.756C136.079 52.46 136.159 52.1 136.159 51.676C136.159 51.044 135.991 50.56 135.655 50.224C135.327 49.88 134.923 49.708 134.443 49.708C133.963 49.708 133.559 49.88 133.231 50.224C132.911 50.56 132.751 51.044 132.751 51.676C132.751 52.308 132.907 52.796 133.219 53.14C133.539 53.476 133.939 53.644 134.419 53.644ZM145.204 48.256C145.996 48.256 146.636 48.508 147.124 49.012C147.612 49.508 147.856 50.204 147.856 51.1V55H146.176V51.328C146.176 50.8 146.044 50.396 145.78 50.116C145.516 49.828 145.156 49.684 144.7 49.684C144.236 49.684 143.868 49.828 143.596 50.116C143.332 50.396 143.2 50.8 143.2 51.328V55H141.52V48.352H143.2V49.18C143.424 48.892 143.708 48.668 144.052 48.508C144.404 48.34 144.788 48.256 145.204 48.256ZM165.369 48.256C166.185 48.256 166.841 48.508 167.337 49.012C167.841 49.508 168.093 50.204 168.093 51.1V55H166.413V51.328C166.413 50.808 166.281 50.412 166.017 50.14C165.753 49.86 165.393 49.72 164.937 49.72C164.481 49.72 164.117 49.86 163.845 50.14C163.581 50.412 163.449 50.808 163.449 51.328V55H161.769V51.328C161.769 50.808 161.637 50.412 161.373 50.14C161.109 49.86 160.749 49.72 160.293 49.72C159.829 49.72 159.461 49.86 159.189 50.14C158.925 50.412 158.793 50.808 158.793 51.328V55H157.113V48.352H158.793V49.156C159.009 48.876 159.285 48.656 159.621 48.496C159.965 48.336 160.341 48.256 160.749 48.256C161.269 48.256 161.733 48.368 162.141 48.592C162.549 48.808 162.865 49.12 163.089 49.528C163.305 49.144 163.617 48.836 164.025 48.604C164.441 48.372 164.889 48.256 165.369 48.256ZM178.267 51.532C178.267 51.772 178.251 51.988 178.219 52.18H173.359C173.399 52.66 173.567 53.036 173.863 53.308C174.159 53.58 174.523 53.716 174.955 53.716C175.579 53.716 176.023 53.448 176.287 52.912H178.099C177.907 53.552 177.539 54.08 176.995 54.496C176.451 54.904 175.783 55.108 174.991 55.108C174.351 55.108 173.775 54.968 173.263 54.688C172.759 54.4 172.363 53.996 172.075 53.476C171.795 52.956 171.655 52.356 171.655 51.676C171.655 50.988 171.795 50.384 172.075 49.864C172.355 49.344 172.747 48.944 173.251 48.664C173.755 48.384 174.335 48.244 174.991 48.244C175.623 48.244 176.187 48.38 176.683 48.652C177.187 48.924 177.575 49.312 177.847 49.816C178.127 50.312 178.267 50.884 178.267 51.532ZM176.527 51.052C176.519 50.62 176.363 50.276 176.059 50.02C175.755 49.756 175.383 49.624 174.943 49.624C174.527 49.624 174.175 49.752 173.887 50.008C173.607 50.256 173.435 50.604 173.371 51.052H176.527ZM188.073 51.532C188.073 51.772 188.057 51.988 188.025 52.18H183.165C183.205 52.66 183.373 53.036 183.669 53.308C183.965 53.58 184.329 53.716 184.761 53.716C185.385 53.716 185.829 53.448 186.093 52.912H187.905C187.713 53.552 187.345 54.08 186.801 54.496C186.257 54.904 185.589 55.108 184.797 55.108C184.157 55.108 183.581 54.968 183.069 54.688C182.565 54.4 182.169 53.996 181.881 53.476C181.601 52.956 181.461 52.356 181.461 51.676C181.461 50.988 181.601 50.384 181.881 49.864C182.161 49.344 182.553 48.944 183.057 48.664C183.561 48.384 184.141 48.244 184.797 48.244C185.429 48.244 185.993 48.38 186.489 48.652C186.993 48.924 187.381 49.312 187.653 49.816C187.933 50.312 188.073 50.884 188.073 51.532ZM186.333 51.052C186.325 50.62 186.169 50.276 185.865 50.02C185.561 49.756 185.189 49.624 184.749 49.624C184.333 49.624 183.981 49.752 183.693 50.008C183.413 50.256 183.241 50.604 183.177 51.052H186.333ZM193.655 49.732V52.948C193.655 53.172 193.707 53.336 193.811 53.44C193.923 53.536 194.107 53.584 194.363 53.584H195.143V55H194.087C192.671 55 191.963 54.312 191.963 52.936V49.732H191.171V48.352H191.963V46.708H193.655V48.352H195.143V49.732H193.655ZM201.296 55.108C200.752 55.108 200.264 55.012 199.832 54.82C199.4 54.62 199.056 54.352 198.8 54.016C198.552 53.68 198.416 53.308 198.392 52.9H200.084C200.116 53.156 200.24 53.368 200.456 53.536C200.68 53.704 200.956 53.788 201.284 53.788C201.604 53.788 201.852 53.724 202.028 53.596C202.212 53.468 202.304 53.304 202.304 53.104C202.304 52.888 202.192 52.728 201.968 52.624C201.752 52.512 201.404 52.392 200.924 52.264C200.428 52.144 200.02 52.02 199.7 51.892C199.388 51.764 199.116 51.568 198.884 51.304C198.66 51.04 198.548 50.684 198.548 50.236C198.548 49.868 198.652 49.532 198.86 49.228C199.076 48.924 199.38 48.684 199.772 48.508C200.172 48.332 200.64 48.244 201.176 48.244C201.968 48.244 202.6 48.444 203.072 48.844C203.544 49.236 203.804 49.768 203.852 50.44H202.244C202.22 50.176 202.108 49.968 201.908 49.816C201.716 49.656 201.456 49.576 201.128 49.576C200.824 49.576 200.588 49.632 200.42 49.744C200.26 49.856 200.18 50.012 200.18 50.212C200.18 50.436 200.292 50.608 200.516 50.728C200.74 50.84 201.088 50.956 201.56 51.076C202.04 51.196 202.436 51.32 202.748 51.448C203.06 51.576 203.328 51.776 203.552 52.048C203.784 52.312 203.904 52.664 203.912 53.104C203.912 53.488 203.804 53.832 203.588 54.136C203.38 54.44 203.076 54.68 202.676 54.856C202.284 55.024 201.824 55.108 201.296 55.108ZM219.13 51.532C219.13 51.772 219.114 51.988 219.082 52.18H214.222C214.262 52.66 214.43 53.036 214.726 53.308C215.022 53.58 215.386 53.716 215.818 53.716C216.442 53.716 216.886 53.448 217.15 52.912H218.962C218.77 53.552 218.402 54.08 217.858 54.496C217.314 54.904 216.646 55.108 215.854 55.108C215.214 55.108 214.638 54.968 214.126 54.688C213.622 54.4 213.226 53.996 212.938 53.476C212.658 52.956 212.518 52.356 212.518 51.676C212.518 50.988 212.658 50.384 212.938 49.864C213.218 49.344 213.61 48.944 214.114 48.664C214.618 48.384 215.198 48.244 215.854 48.244C216.486 48.244 217.05 48.38 217.546 48.652C218.05 48.924 218.438 49.312 218.71 49.816C218.99 50.312 219.13 50.884 219.13 51.532ZM217.39 51.052C217.382 50.62 217.226 50.276 216.922 50.02C216.618 49.756 216.246 49.624 215.806 49.624C215.39 49.624 215.038 49.752 214.75 50.008C214.47 50.256 214.298 50.604 214.234 51.052H217.39ZM226.429 55L225.061 52.936L223.849 55H222.049L224.221 51.664L222.025 48.352H223.921L225.277 50.404L226.501 48.352H228.301L226.117 51.664L228.325 55H226.429ZM231.205 51.676C231.205 50.988 231.345 50.388 231.625 49.876C231.905 49.356 232.293 48.956 232.789 48.676C233.285 48.388 233.853 48.244 234.493 48.244C235.317 48.244 235.997 48.452 236.533 48.868C237.077 49.276 237.441 49.852 237.625 50.596H235.813C235.717 50.308 235.553 50.084 235.321 49.924C235.097 49.756 234.817 49.672 234.481 49.672C234.001 49.672 233.621 49.848 233.341 50.2C233.061 50.544 232.921 51.036 232.921 51.676C232.921 52.308 233.061 52.8 233.341 53.152C233.621 53.496 234.001 53.668 234.481 53.668C235.161 53.668 235.605 53.364 235.813 52.756H237.625C237.441 53.476 237.077 54.048 236.533 54.472C235.989 54.896 235.309 55.108 234.493 55.108C233.853 55.108 233.285 54.968 232.789 54.688C232.293 54.4 231.905 54 231.625 53.488C231.345 52.968 231.205 52.364 231.205 51.676ZM247.436 51.532C247.436 51.772 247.42 51.988 247.388 52.18H242.528C242.568 52.66 242.736 53.036 243.032 53.308C243.328 53.58 243.692 53.716 244.124 53.716C244.748 53.716 245.192 53.448 245.456 52.912H247.268C247.076 53.552 246.708 54.08 246.164 54.496C245.62 54.904 244.952 55.108 244.16 55.108C243.52 55.108 242.944 54.968 242.432 54.688C241.928 54.4 241.532 53.996 241.244 53.476C240.964 52.956 240.824 52.356 240.824 51.676C240.824 50.988 240.964 50.384 241.244 49.864C241.524 49.344 241.916 48.944 242.42 48.664C242.924 48.384 243.504 48.244 244.16 48.244C244.792 48.244 245.356 48.38 245.852 48.652C246.356 48.924 246.744 49.312 247.016 49.816C247.296 50.312 247.436 50.884 247.436 51.532ZM245.696 51.052C245.688 50.62 245.532 50.276 245.228 50.02C244.924 49.756 244.552 49.624 244.112 49.624C243.696 49.624 243.344 49.752 243.056 50.008C242.776 50.256 242.604 50.604 242.54 51.052H245.696ZM252.742 46.12V55H251.062V46.12H252.742ZM258.482 46.12V55H256.802V46.12H258.482ZM268.722 51.532C268.722 51.772 268.706 51.988 268.674 52.18H263.814C263.854 52.66 264.022 53.036 264.318 53.308C264.614 53.58 264.978 53.716 265.41 53.716C266.034 53.716 266.478 53.448 266.742 52.912H268.554C268.362 53.552 267.994 54.08 267.45 54.496C266.906 54.904 266.238 55.108 265.446 55.108C264.806 55.108 264.23 54.968 263.718 54.688C263.214 54.4 262.818 53.996 262.53 53.476C262.25 52.956 262.11 52.356 262.11 51.676C262.11 50.988 262.25 50.384 262.53 49.864C262.81 49.344 263.202 48.944 263.706 48.664C264.21 48.384 264.79 48.244 265.446 48.244C266.078 48.244 266.642 48.38 267.138 48.652C267.642 48.924 268.03 49.312 268.302 49.816C268.582 50.312 268.722 50.884 268.722 51.532ZM266.982 51.052C266.974 50.62 266.818 50.276 266.514 50.02C266.21 49.756 265.838 49.624 265.398 49.624C264.982 49.624 264.63 49.752 264.342 50.008C264.062 50.256 263.89 50.604 263.826 51.052H266.982ZM276.032 48.256C276.824 48.256 277.464 48.508 277.952 49.012C278.44 49.508 278.684 50.204 278.684 51.1V55H277.004V51.328C277.004 50.8 276.872 50.396 276.608 50.116C276.344 49.828 275.984 49.684 275.528 49.684C275.064 49.684 274.696 49.828 274.424 50.116C274.16 50.396 274.028 50.8 274.028 51.328V55H272.348V48.352H274.028V49.18C274.252 48.892 274.536 48.668 274.88 48.508C275.232 48.34 275.616 48.256 276.032 48.256ZM282.25 51.676C282.25 50.988 282.39 50.388 282.67 49.876C282.95 49.356 283.338 48.956 283.834 48.676C284.33 48.388 284.898 48.244 285.538 48.244C286.362 48.244 287.042 48.452 287.578 48.868C288.122 49.276 288.486 49.852 288.67 50.596H286.858C286.762 50.308 286.598 50.084 286.366 49.924C286.142 49.756 285.862 49.672 285.526 49.672C285.046 49.672 284.666 49.848 284.386 50.2C284.106 50.544 283.966 51.036 283.966 51.676C283.966 52.308 284.106 52.8 284.386 53.152C284.666 53.496 285.046 53.668 285.526 53.668C286.206 53.668 286.65 53.364 286.858 52.756H288.67C288.486 53.476 288.122 54.048 287.578 54.472C287.034 54.896 286.354 55.108 285.538 55.108C284.898 55.108 284.33 54.968 283.834 54.688C283.338 54.4 282.95 54 282.67 53.488C282.39 52.968 282.25 52.364 282.25 51.676ZM298.48 51.532C298.48 51.772 298.464 51.988 298.432 52.18H293.572C293.612 52.66 293.78 53.036 294.076 53.308C294.372 53.58 294.736 53.716 295.168 53.716C295.792 53.716 296.236 53.448 296.5 52.912H298.312C298.12 53.552 297.752 54.08 297.208 54.496C296.664 54.904 295.996 55.108 295.204 55.108C294.564 55.108 293.988 54.968 293.476 54.688C292.972 54.4 292.576 53.996 292.288 53.476C292.008 52.956 291.868 52.356 291.868 51.676C291.868 50.988 292.008 50.384 292.288 49.864C292.568 49.344 292.96 48.944 293.464 48.664C293.968 48.384 294.548 48.244 295.204 48.244C295.836 48.244 296.4 48.38 296.896 48.652C297.4 48.924 297.788 49.312 298.06 49.816C298.34 50.312 298.48 50.884 298.48 51.532ZM296.74 51.052C296.732 50.62 296.576 50.276 296.272 50.02C295.968 49.756 295.596 49.624 295.156 49.624C294.74 49.624 294.388 49.752 294.1 50.008C293.82 50.256 293.648 50.604 293.584 51.052H296.74Z" fill="white"/>
</svg>
